<svg width="368" height="142" viewBox="0 0 368 142" fill="none" xmlns="http://www.w3.org/2000/svg">
    <rect width="368" height="142" rx="10" fill="url(#paint0_linear_0_1)" />
    <path
        d="M318.931 46.431V39.3276C318.931 38.3469 318.136 37.5517 317.155 37.5517H263.879C262.899 37.5517 262.103 38.3469 262.103 39.3276V46.431C262.103 47.4117 262.899 48.207 263.879 48.207H256.776C255.795 48.207 255 49.002 255 49.9827V57.0861C255 58.0668 255.795 58.862 256.776 58.862H260.328C259.347 58.862 258.552 59.6573 258.552 60.638V67.7414C258.552 68.7221 259.347 69.5173 260.328 69.5173H256.776C255.795 69.5173 255 70.3125 255 71.2933V78.3966C255 79.3773 255.795 80.1726 256.776 80.1726H263.879C262.899 80.1726 262.103 80.9678 262.103 81.9485V89.0519C262.103 90.0326 262.899 90.8278 263.879 90.8278H256.776C255.795 90.8278 255 91.6231 255 92.6038V99.7072C255 100.688 255.795 101.483 256.776 101.483H260.328C259.347 101.483 258.552 102.278 258.552 103.259V110.362C258.552 111.343 259.347 112.138 260.328 112.138H256.776C255.795 112.138 255 112.934 255 113.914V121.018C255 121.998 255.795 122.794 256.776 122.794H263.879C262.899 122.794 262.103 123.589 262.103 124.57V131.673C262.103 132.654 262.899 133.449 263.879 133.449H317.155C318.136 133.449 318.931 132.654 318.931 131.673V81.9483C318.931 80.9676 318.136 80.1724 317.155 80.1724H310.052C311.033 80.1724 311.828 79.3771 311.828 78.3964V71.293C311.828 70.3123 311.033 69.5171 310.052 69.5171H313.604C314.584 69.5171 315.38 68.7219 315.38 67.7412V60.6378C315.38 59.6571 314.584 58.8618 313.604 58.8618H310.052C311.033 58.8618 311.828 58.0666 311.828 57.0859V49.9825C311.828 49.0018 311.033 48.2066 310.052 48.2066H317.155C318.136 48.207 318.931 47.4117 318.931 46.431Z"
        fill="#FECB00" />
    <path
        d="M317.155 80.1724H310.052C311.033 80.1724 311.828 79.3771 311.828 78.3964V76.3833C302.246 82.3356 295.845 92.9247 295.845 105.034C295.845 116.981 302.071 127.452 311.437 133.448H317.155C318.136 133.448 318.931 132.653 318.931 131.672V81.9483C318.931 80.9676 318.136 80.1724 317.155 80.1724Z"
        fill="#FFBC28" />
    <path
        d="M308.276 69.5173H304.724C303.743 69.5173 302.948 68.7221 302.948 67.7414V60.638C302.948 59.6573 303.743 58.862 304.724 58.862H308.276C309.257 58.862 310.052 59.6573 310.052 60.638V67.7414C310.052 68.7221 309.257 69.5173 308.276 69.5173Z"
        fill="#FFF082" />
    <path
        d="M304.724 58.862H301.172C300.192 58.862 299.396 58.0668 299.396 57.0861V49.9827C299.396 49.002 300.192 48.2068 301.172 48.2068H304.724C305.705 48.2068 306.5 49.002 306.5 49.9827V57.0861C306.5 58.067 305.705 58.862 304.724 58.862Z"
        fill="#FFF082" />
    <path
        d="M304.724 80.1724H301.172C300.192 80.1724 299.396 79.3771 299.396 78.3964V71.293C299.396 70.3123 300.192 69.5171 301.172 69.5171H304.724C305.705 69.5171 306.5 70.3123 306.5 71.293V78.3964C306.5 79.3773 305.705 80.1724 304.724 80.1724Z"
        fill="#FFF082" />
    <path
        d="M329.586 133.448C345.279 133.448 358 120.727 358 105.034C358 89.3419 345.279 76.6207 329.586 76.6207C313.894 76.6207 301.173 89.3419 301.173 105.034C301.173 120.727 313.894 133.448 329.586 133.448Z"
        fill="#FFDC64" />
    <path
        d="M329.586 129.896C343.317 129.896 354.448 118.765 354.448 105.034C354.448 91.3035 343.317 80.1724 329.586 80.1724C315.855 80.1724 304.724 91.3035 304.724 105.034C304.724 118.765 315.855 129.896 329.586 129.896Z"
        fill="#FFC850" />
    <path
        d="M329.586 126.345C341.356 126.345 350.897 116.804 350.897 105.034C350.897 93.265 341.356 83.7241 329.586 83.7241C317.817 83.7241 308.276 93.265 308.276 105.034C308.276 116.804 317.817 126.345 329.586 126.345Z"
        fill="#DB9300" />
    <path
        d="M331.362 103.738V96.3498C333.472 96.7938 334.914 97.9622 334.914 99.0409C334.914 100.022 335.708 100.817 336.69 100.817C337.671 100.817 338.466 100.023 338.466 99.0409C338.466 95.8742 335.462 93.3109 331.362 92.7295V92.6034C331.362 91.6219 330.568 90.8274 329.586 90.8274C328.605 90.8274 327.81 91.6217 327.81 92.6034V92.7295C323.711 93.3111 320.707 95.8744 320.707 99.0409C320.707 103.517 324.607 105.267 327.81 106.33V113.719C325.7 113.275 324.259 112.106 324.259 111.028C324.259 110.046 323.464 109.252 322.483 109.252C321.501 109.252 320.707 110.046 320.707 111.028C320.707 114.195 323.711 116.758 327.81 117.339V117.465C327.81 118.447 328.604 119.241 329.586 119.241C330.568 119.241 331.362 118.447 331.362 117.465V117.339C335.462 116.758 338.465 114.194 338.465 111.028C338.466 106.552 334.565 104.802 331.362 103.738ZM324.259 99.0409C324.259 97.9624 325.7 96.794 327.81 96.35V102.536C325.165 101.501 324.259 100.554 324.259 99.0409ZM331.362 113.719V107.533C334.008 108.568 334.914 109.515 334.914 111.028C334.914 112.107 333.472 113.275 331.362 113.719Z"
        fill="#FECB00" />
    <path
        d="M279.862 48.207H286.965C285.985 48.207 285.189 47.4117 285.189 46.431V39.3276C285.189 38.3469 285.985 37.5517 286.965 37.5517H263.879C262.899 37.5517 262.103 38.3469 262.103 39.3276V46.431C262.103 47.4117 262.899 48.207 263.879 48.207H256.776C255.795 48.207 255 49.002 255 49.9827V57.0861C255 58.0668 255.795 58.862 256.776 58.862H260.328C259.347 58.862 258.552 59.6573 258.552 60.638V67.7414C258.552 68.7221 259.347 69.5173 260.328 69.5173H256.776C255.795 69.5173 255 70.3125 255 71.2933V78.3966C255 79.3773 255.795 80.1726 256.776 80.1726H263.879C262.899 80.1726 262.103 80.9678 262.103 81.9485V89.0519C262.103 90.0326 262.899 90.8278 263.879 90.8278H256.776C255.795 90.8278 255 91.6231 255 92.6038V99.7072C255 100.688 255.795 101.483 256.776 101.483H260.328C259.347 101.483 258.552 102.278 258.552 103.259V110.362C258.552 111.343 259.347 112.138 260.328 112.138H256.776C255.795 112.138 255 112.934 255 113.914V121.018C255 121.998 255.795 122.794 256.776 122.794H263.879C262.899 122.794 262.103 123.589 262.103 124.57V131.673C262.103 132.654 262.899 133.449 263.879 133.449H286.966C285.985 133.449 285.19 132.654 285.19 131.673V124.57C285.19 123.589 285.985 122.794 286.966 122.794H279.862C278.882 122.794 278.086 121.998 278.086 121.018V113.914C278.086 112.934 278.882 112.138 279.862 112.138H283.414C282.433 112.138 281.638 111.343 281.638 110.362V103.259C281.638 102.278 282.433 101.483 283.414 101.483H279.862C278.882 101.483 278.086 100.688 278.086 99.7072V92.6038C278.086 91.6231 278.882 90.8278 279.862 90.8278H286.966C285.985 90.8278 285.19 90.0326 285.19 89.0519V81.9485C285.19 80.9678 285.985 80.1726 286.966 80.1726H279.862C278.882 80.1726 278.086 79.3773 278.086 78.3966V71.2933C278.086 70.3125 278.882 69.5173 279.862 69.5173H283.414C282.433 69.5173 281.638 68.7221 281.638 67.7414V60.638C281.638 59.6573 282.433 58.862 283.414 58.862H279.862C278.882 58.862 278.086 58.0668 278.086 57.0861V49.9827C278.086 49.002 278.881 48.207 279.862 48.207Z"
        fill="#F4A70A" />
    <path
        d="M311.828 48.207H308.276C307.295 48.207 306.5 47.4117 306.5 46.431V39.3276C306.5 38.3469 307.295 37.5517 308.276 37.5517H311.828C312.808 37.5517 313.604 38.3469 313.604 39.3276V46.431C313.603 47.4117 312.808 48.207 311.828 48.207Z"
        fill="#FFF082" />
    <defs>
        <linearGradient id="paint0_linear_0_1" x1="43" y1="2.30369e-06" x2="294.5" y2="142"
            gradientUnits="userSpaceOnUse">
            <stop stop-color="#4AA3E7" />
            <stop offset="0.441243" stop-color="#9DBCB4" />
            <stop offset="1" stop-color="#ECD17D" />
        </linearGradient>
    </defs>
</svg>
    