<svg width="216" height="216" viewBox="0 0 216 216" fill="none" xmlns="http://www.w3.org/2000/svg">
    <g clip-path="url(#clip0_25_865)">
    <path d="M85.0847 140.022C67.4647 140.022 54.8884 128.833 45.726 120.662C39.9335 115.486 34.9338 111.037 30.9032 111.015H26.278L26.5423 106.389C28.7734 66.6542 61.6281 35.5659 101.427 35.5351C102.984 35.5351 104.526 35.5791 106.052 35.6672H107.616L108.762 36.7244C121.118 48.1114 121.36 60.7317 109.51 74.1669C104.46 79.6115 99.0287 84.6904 93.2559 89.3641C85.6133 95.9716 78.3891 102.006 75.9443 107.513C74.6514 109.689 74.6096 112.389 75.8342 114.605C77.3319 117.292 80.9219 119.935 86.5163 122.402C90.831 124.093 94.888 126.386 98.5639 129.207H99.1586L101.824 132.643L100.414 138.083H97.7931C94.1391 139.35 90.2936 139.975 86.4282 139.933L85.0847 140.022Z" fill="#D09CFA"/>
    <path d="M101.493 185.635C61.0664 185.637 27.899 153.62 26.4762 113.217L26.322 108.526L31.0134 108.658C36.1011 108.79 41.0788 113.239 47.3779 118.856C56.7385 127.203 68.3677 137.577 85.0406 137.577H86.3621C90.1923 137.647 93.9982 136.973 97.5728 135.595C98.4098 135.154 98.8943 134.692 99.0044 134.229C99.1146 133.766 99.1806 133.524 98.2776 132.423C97.3746 131.322 94.3131 128.569 85.5472 124.692C81.4043 123.122 77.7437 120.494 74.9312 117.072C72.678 114.059 72.286 110.043 73.918 106.654C76.6051 100.619 83.653 94.6061 91.8463 87.6462C97.4957 83.0606 102.817 78.0851 107.77 72.7573C117.549 61.6126 118.783 52.9348 112.175 44.1248L105.26 34.8743L116.58 37.0768C127.588 39.2881 137.956 43.9574 146.909 50.7323L149.354 52.5824L143.627 71.5459L149.706 77.6248L158.626 61.4364L162.679 67.1409C168.504 75.3012 172.625 84.5517 174.792 94.3418L175.519 97.6675L172.502 99.1872C160.784 105.134 160.388 108.504 159.639 114.605C158.824 121.212 157.723 130.507 138.077 146.893C132.654 151.043 128.029 156.139 124.421 161.936C121.551 167.013 120.56 172.94 121.624 178.675L122.307 182.882L118.254 183.807C112.752 185.041 107.132 185.655 101.493 185.635Z" fill="#73DDCD"/>
    <path d="M179.704 77.4486L183.426 65.1366L167.656 50.2918L150.257 81.6774L140.852 72.2727L152.019 35.5131L138.627 22.8927C135.791 20.3445 134.863 16.2875 136.315 12.7613C137.458 10.0742 139.596 7.93559 142.284 6.79249H142.504C143.53 6.40045 144.62 6.19781 145.719 6.19781C148.241 6.24407 150.631 7.3277 152.327 9.19321L164.925 22.5624L201.729 11.4398L211.134 20.8444L179.748 38.1781L194.593 53.9259L206.927 50.2037L214.569 57.8464L199.615 66.1498L196.949 67.4713L195.738 69.9381L187.259 85.0913L179.704 77.4486Z" fill="white"/>
    <path d="M118.981 178.477C118.036 172.409 119.171 166.2 122.197 160.857C125.996 154.765 130.877 149.422 136.601 145.087C155.498 129.317 156.424 121.036 157.305 114.362C158.031 108.35 159.331 103.68 169.594 98.042L175.299 94.9144L176.004 101.39C176.374 104.445 176.557 107.519 176.554 110.596C176.598 130.522 168.667 149.635 154.529 163.676C146.178 172.015 135.987 178.277 124.774 181.957L119.774 183.587L118.981 178.477Z" fill="#D09CFA"/>
    <path d="M29.8681 178.125C28.5796 179.415 28.5796 181.503 29.8681 182.794C32.0419 184.997 34.3369 187.078 36.7399 189.027C38.0283 190.318 40.1207 190.32 41.4114 189.029C42.702 187.739 42.7042 185.648 41.4136 184.358C41.3277 184.272 41.2374 184.19 41.1426 184.116L40.9224 183.939C38.7199 182.111 36.5174 180.151 34.4911 178.125C33.2093 176.865 31.1521 176.865 29.8681 178.125Z" fill="#964DD6"/>
    <path d="M3.46012 101.83H3.87859C5.55029 101.83 6.95989 100.584 7.16031 98.9229C7.51271 96.0597 7.99726 93.1744 8.61396 90.3773C9.29453 88.6835 8.4752 86.7608 6.78148 86.0802C5.08776 85.3996 3.16498 86.2189 2.48441 87.9127C2.34565 88.2562 2.26636 88.6219 2.24874 88.9919C1.588 92.0093 1.08142 95.0708 0.706996 98.1322C0.469127 99.9053 1.69151 101.548 3.46012 101.83Z" fill="#964DD6"/>
    <path d="M15.4637 158.236C13.8956 159.168 13.3802 161.196 14.314 162.765C14.3162 162.767 14.3184 162.771 14.3184 162.773C15.9042 165.416 17.6222 168.015 19.4503 170.504C20.5779 171.938 22.6549 172.189 24.0887 171.061C25.4543 169.989 25.756 168.042 24.7803 166.606C23.0844 164.271 21.4765 161.848 20.0009 159.381C19.0692 157.813 17.0407 157.298 15.4725 158.232C15.4703 158.232 15.4659 158.234 15.4637 158.236Z" fill="#964DD6"/>
    <path d="M6.19122 135.352C4.45785 135.883 3.47333 137.711 3.98872 139.449C4.86972 142.4 5.88287 145.352 7.02817 148.259C7.71534 149.979 9.66896 150.818 11.3891 150.131C13.1093 149.444 13.9484 147.49 13.2612 145.77C12.204 143.105 11.2349 140.352 10.42 137.577C9.88921 135.843 8.06114 134.859 6.32337 135.374L6.19122 135.352Z" fill="#964DD6"/>
    <path d="M8.85624 77.7349C10.55 78.4111 12.4727 77.5852 13.1489 75.8914C13.1489 75.8892 13.1511 75.887 13.1511 75.8848C14.1885 73.1868 15.3712 70.546 16.6971 67.9779C17.5187 66.348 16.8623 64.3614 15.2325 63.5398C13.6026 62.7183 11.616 63.3746 10.7944 65.0045C9.40687 67.7576 8.12942 70.5988 7.00614 73.4841C6.35861 75.169 7.18234 77.061 8.85624 77.7349Z" fill="#964DD6"/>
    <path d="M3.90062 126.476H4.45124C6.2617 126.247 7.54355 124.595 7.31669 122.785C7.31669 122.783 7.31669 122.778 7.31449 122.776C6.96209 119.913 6.71982 117.005 6.60969 114.142C6.54362 112.319 5.00848 110.894 3.18481 110.96C1.36114 111.026 -0.0638745 112.561 0.00220039 114.384C0.0528578 117.481 0.303943 120.571 0.751049 123.635C0.973502 125.221 2.30161 126.417 3.90062 126.476Z" fill="#964DD6"/>
    <path d="M82.706 17.4526H83.3447C86.1859 16.9019 89.0712 16.4835 91.9344 16.1971C93.7691 16.1355 95.2095 14.5981 95.1479 12.7634C95.0862 10.9288 93.5489 9.48833 91.7142 9.55C91.5732 9.55441 91.4345 9.56762 91.2957 9.58965C88.2342 9.898 85.1507 10.3385 82.1113 10.9332C80.2744 10.9794 78.823 12.5058 78.8692 14.3404C78.9155 16.1773 80.4418 17.6288 82.2765 17.5825C82.4263 17.5781 82.5782 17.5649 82.7258 17.5407L82.706 17.4526Z" fill="#964DD6"/>
    <path d="M21.7408 56.3707C22.8047 56.3751 23.8046 55.8663 24.4279 55.0052C26.1238 52.6705 27.9299 50.3799 29.824 48.2215C31.0926 46.8934 31.042 44.7878 29.7139 43.5191C28.3858 42.2505 26.2802 42.3012 25.0116 43.6293C24.9543 43.6887 24.8992 43.7526 24.8464 43.8165C22.8201 46.019 20.8819 48.5739 19.0758 51.0847C18.0054 52.5626 18.3358 54.6285 19.8137 55.6989C20.3753 56.1042 21.0493 56.3245 21.7408 56.3267V56.3707Z" fill="#964DD6"/>
    <path d="M115.699 16.7478H116.206C118.03 16.8821 119.618 15.51 119.752 13.6863C119.886 11.8626 118.514 10.2746 116.69 10.1403C113.651 9.67775 110.546 9.34738 107.462 9.17118C105.638 9.06105 104.07 10.453 103.96 12.2767C103.85 14.1004 105.242 15.6685 107.066 15.7787C109.973 15.9989 112.858 16.3073 115.699 16.7478Z" fill="#964DD6"/>
    <path d="M40.6823 37.6495C42.8848 35.7994 45.2195 34.0374 47.5982 32.4075C49.0672 31.3261 49.3822 29.258 48.3008 27.7889C47.2678 26.3859 45.3208 26.0269 43.8539 26.9674C41.321 28.7073 38.8322 30.6015 36.4535 32.5617C35.0483 33.729 34.8567 35.8148 36.024 37.22C37.1914 38.6252 39.2771 38.8168 40.6823 37.6495Z" fill="#964DD6"/>
    <path d="M59.3154 25.1173C59.8044 25.1129 60.2845 25.0005 60.725 24.7869C63.324 23.5535 66.011 22.4302 68.7201 21.4391C70.4535 20.8686 71.3939 19.0009 70.8235 17.2676C70.2927 15.6597 68.6342 14.7127 66.9801 15.0739L66.5176 15.2281C63.6037 16.2632 60.7515 17.4614 57.9719 18.8181C56.3178 19.5868 55.5998 21.5536 56.3707 23.2077C56.9147 24.3772 58.0909 25.1239 59.3815 25.1173H59.3154Z" fill="#964DD6"/>
    <path d="M98.7842 205.59C96.9605 205.541 95.4408 206.982 95.3924 208.806C95.3439 210.629 96.7843 212.149 98.608 212.197H101.361C103.564 212.197 105.766 212.197 107.836 211.999C109.66 211.885 111.046 210.31 110.931 208.486C110.816 206.662 109.242 205.277 107.418 205.392C104.546 205.61 101.663 205.676 98.7842 205.59Z" fill="#964DD6"/>
    <path d="M192.897 146.783C194.615 147.4 196.507 146.506 197.121 144.79C197.123 144.786 197.123 144.783 197.126 144.779C198.161 141.872 199.064 138.898 199.835 135.969C200.381 134.229 199.414 132.374 197.672 131.826C195.93 131.278 194.077 132.247 193.529 133.989C193.485 134.132 193.45 134.28 193.423 134.427C192.718 137.224 191.86 140 190.89 142.709C190.373 144.382 191.254 146.173 192.897 146.783Z" fill="#964DD6"/>
    <path d="M198.271 97.9098H198.822C200.621 97.6169 201.843 95.9209 201.553 94.1215C201.046 91.0821 200.407 88.0206 199.637 85.0472C199.108 83.3006 197.264 82.3117 195.518 82.8403C193.862 83.3403 192.873 85.034 193.249 86.7211C193.976 89.4963 194.571 92.3595 195.055 95.2007C195.339 96.7579 196.69 97.8944 198.271 97.9098Z" fill="#964DD6"/>
    <path d="M200.848 9.41346L165.762 20.0295L153.957 7.49729C150.948 4.01734 146.05 2.85663 141.799 4.61202H141.601C138.396 5.93131 135.85 8.4774 134.531 11.682C134.198 12.519 133.962 13.3912 133.826 14.281L132.482 13.8185C130.742 13.259 128.879 14.2149 128.32 15.9549C127.76 17.6948 128.716 19.5582 130.456 20.1176C132.152 20.6682 133.848 21.2849 135.544 21.9236C136.055 22.7232 136.652 23.461 137.328 24.1261L149.816 35.9315L146.248 47.7149C111.349 22.8223 62.8813 30.9319 37.9865 65.8304C13.0916 100.729 21.2034 149.197 56.102 174.092C91.0006 198.987 139.469 190.875 164.364 155.976C184.215 128.148 183.521 90.6085 162.657 63.5288L168.295 53.3533L181.378 65.6873L178.228 76.1051C177.838 77.2416 178.118 78.5014 178.955 79.3648C178.955 79.3648 185.408 85.752 185.563 85.9723C187.08 86.8731 189.038 86.3709 189.939 84.8556C189.948 84.838 189.959 84.8226 189.968 84.8049L198.579 69.013L214.129 60.5334C215.741 59.7912 216.448 57.8816 215.704 56.2672C215.547 55.9302 215.336 55.6218 215.076 55.3575L209.283 49.2126C208.447 48.3778 207.22 48.0739 206.09 48.4197L195.562 51.6133L183.228 38.5305L210.913 23.113C212.526 22.3708 213.233 20.4612 212.488 18.8468C212.332 18.5098 212.12 18.2014 211.86 17.9371L204.086 10.1623C203.229 9.33197 201.982 9.04344 200.848 9.41346ZM51.2543 60.5554C64.5442 47.2722 82.5716 39.8233 101.361 39.852C102.83 39.852 104.297 39.896 105.766 39.9841C118.254 51.5032 114.576 62.0091 106.207 71.4798C101.269 76.7174 95.9694 81.6047 90.3486 86.1044C82.2214 93.0203 74.6448 99.4736 71.7816 105.927C68.3897 113.592 70.8786 120.529 84.5781 126.586C91.4279 129.626 95.1501 131.982 96.6037 133.766C96.8019 134.009 97.0002 133.766 96.9561 133.766C96.8042 133.777 96.6544 133.815 96.5156 133.877C93.1987 135.139 89.6681 135.746 86.1198 135.661C69.513 136.365 57.6856 125.749 48.5012 117.534C41.8937 111.653 36.4095 106.764 30.705 106.72C31.6367 89.3267 38.9534 72.8872 51.2543 60.5554ZM172.392 110.728C172.37 141.449 152.596 168.672 123.386 178.191C122.567 173.028 123.523 167.742 126.095 163.192C129.586 157.586 134.062 152.662 139.31 148.655C159.639 131.696 160.784 122.225 161.665 114.935C162.216 110.332 162.635 106.896 171.731 101.896C172.094 104.819 172.279 107.762 172.282 110.706L172.392 110.728ZM168.273 86.8973C169.257 89.6702 170.066 92.5027 170.696 95.3769C156.842 102.425 156.225 107.447 155.388 114.296C154.64 120.463 153.67 128.525 135.302 143.854C129.419 148.356 124.415 153.902 120.545 160.218C117.171 166.183 116.001 173.147 117.241 179.887C79.0344 188.62 40.9819 164.729 32.2468 126.52C31.2468 122.15 30.6654 117.697 30.5068 113.217C34.0088 113.217 38.5459 117.38 44.1182 122.335C54.2057 131.344 67.1123 142.841 86.3401 142.158C90.8706 142.235 95.3681 141.38 99.5551 139.647C101.319 138.867 102.656 137.354 103.211 135.506C103.68 133.445 103.086 131.286 101.625 129.758C99.5551 127.225 95.0179 124.23 87.2211 120.75C77.9045 116.631 75.8782 112.622 77.7063 108.526C79.9088 103.372 87.0008 97.5133 94.5334 90.9058C100.403 86.1617 105.931 81.01 111.074 75.4884C120.281 65.0045 125.016 53.4634 115.655 41.0633C126.058 43.191 135.846 47.64 144.288 54.0801L139.222 70.7971C138.848 71.9424 139.145 73.2 139.993 74.0567C139.993 74.0567 148.208 82.206 148.473 82.3602C149.99 83.261 151.948 82.7588 152.849 81.2435C152.858 81.2259 152.869 81.2105 152.878 81.1928L159.287 69.6077C163.064 74.9289 166.088 80.7479 168.273 86.8973ZM176.466 34.9184C174.907 35.7443 174.314 37.6781 175.14 39.2353C175.156 39.2639 175.171 39.2947 175.189 39.3234C175.321 39.5656 192.17 57.494 192.17 57.494C193.005 58.3772 194.269 58.7097 195.43 58.3529L206.068 55.1373L207.72 56.7892L197.808 62.2734L194.967 63.683C194.331 63.9979 193.82 64.5177 193.514 65.1587L192.104 68.0219L186.62 77.9331L185.012 76.1712L188.206 65.6212C188.578 64.3856 188.168 63.0465 187.17 62.2293L169.793 45.8868C168.546 44.6402 166.524 44.6402 165.278 45.8868C165.057 46.1291 149.42 74.299 149.42 74.299L146.006 70.8851L156.666 35.7553C157.047 34.5131 156.639 33.163 155.631 32.3415L141.711 19.4568C140.18 18.1596 139.671 16.0187 140.455 14.1709C141.158 12.5696 142.44 11.2966 144.046 10.6028H144.156C145.979 9.89801 148.05 10.4288 149.309 11.9243L162.524 25.8881C163.355 26.7801 164.619 27.1215 165.784 26.7691L201.024 16.1311L204.438 19.5449L176.466 34.9184Z" fill="#964DD6"/>
    <path d="M189.153 155.087C187.573 154.261 185.626 154.836 184.748 156.386C183.36 158.919 181.84 161.408 180.211 163.786C179.158 165.282 179.519 167.348 181.014 168.401C182.51 169.453 184.576 169.092 185.629 167.597C187.347 165.042 188.976 162.377 190.474 159.69C191.395 158.119 190.873 156.102 189.307 155.175L189.153 155.087Z" fill="#964DD6"/>
    <path d="M202.676 119.913C202.962 116.851 203.094 113.746 203.094 110.662V110.2C203.083 108.383 201.608 106.918 199.791 106.918C197.967 106.87 196.45 108.308 196.401 110.131C196.401 110.153 196.401 110.175 196.399 110.2C196.399 110.2 196.399 110.2 196.399 110.332V110.706C196.399 113.592 196.267 116.499 196.002 119.384C195.837 121.201 197.176 122.809 198.993 122.974C198.996 122.974 198.996 122.974 198.998 122.974H199.306C201.066 123.014 202.548 121.668 202.676 119.913Z" fill="#964DD6"/>
    <path d="M75.2836 202C73.5634 201.392 71.6737 202.295 71.0658 204.015C70.4579 205.735 71.3609 207.625 73.0811 208.233H73.4775C76.4289 209.07 79.4683 209.797 82.5077 210.435H83.1244C84.9371 210.73 86.6462 209.499 86.9414 207.687C87.2365 205.874 86.0053 204.165 84.1927 203.87C84.0429 203.846 83.8931 203.832 83.7433 203.828C80.8867 203.398 78.0609 202.788 75.2836 202Z" fill="#964DD6"/>
    <path d="M130.853 200.987C128.121 201.903 125.333 202.639 122.505 203.189C120.723 203.59 119.604 205.361 120.005 207.143C120.406 208.924 122.177 210.043 123.959 209.642C126.954 208.96 129.972 208.123 132.901 207.176C134.612 206.546 135.489 204.645 134.859 202.934C134.262 201.31 132.515 200.425 130.853 200.899V200.987Z" fill="#964DD6"/>
    <path d="M53.3907 192.617C51.8776 191.597 49.8249 191.996 48.8051 193.509C47.7854 195.022 48.184 197.075 49.6971 198.095C49.8073 198.17 49.924 198.238 50.0429 198.297C52.708 199.861 55.4611 201.315 58.2582 202.702C59.9123 203.48 61.8858 202.771 62.6632 201.117C63.4407 199.463 62.7315 197.489 61.0774 196.712C58.4565 195.436 55.8795 194.027 53.3907 192.617Z" fill="#964DD6"/>
    <path d="M170.674 175.636C168.713 177.766 166.641 179.788 164.463 181.693C163.099 182.909 162.983 184.999 164.198 186.362C165.414 187.725 167.504 187.842 168.868 186.626C171.07 184.578 173.405 182.398 175.475 180.151C176.706 178.803 176.612 176.713 175.264 175.484C173.94 174.275 171.894 174.343 170.652 175.636H170.674Z" fill="#964DD6"/>
    <path d="M152.349 190.833C149.926 192.375 147.393 193.829 144.838 195.238C143.215 196.071 142.574 198.064 143.407 199.687C144.239 201.31 146.233 201.951 147.856 201.119C150.587 199.709 153.296 198.145 155.895 196.494C157.41 195.476 157.813 193.425 156.798 191.91C155.853 190.503 153.999 190.038 152.503 190.833H152.349Z" fill="#964DD6"/>
    </g>
    <defs>
    <clipPath id="clip0_25_865">
    <rect width="216" height="216" fill="white"/>
    </clipPath>
    </defs>
    </svg>
    